<svg width="241" height="58" viewBox="0 0 241 58" fill="none" xmlns="http://www.w3.org/2000/svg">
<path d="M28.5518 44.9766H24.5234V23.3115H25.4902L27.0869 25.2012C27.4482 24.8594 27.8438 24.5371 28.2734 24.2344C28.7031 23.9316 29.1475 23.6729 29.6064 23.458C30.0752 23.2334 30.5586 23.0576 31.0566 22.9307C31.5547 22.8037 32.0576 22.7402 32.5654 22.7402C33.6689 22.7402 34.7041 22.9404 35.6709 23.3408C36.6475 23.7314 37.4971 24.2881 38.2197 25.0107C38.9521 25.7334 39.5283 26.6074 39.9482 27.6328C40.3682 28.6484 40.5781 29.7764 40.5781 31.0166C40.5781 32.3057 40.3682 33.4678 39.9482 34.5029C39.5283 35.5283 38.9521 36.4023 38.2197 37.125C37.4971 37.8379 36.6475 38.3848 35.6709 38.7656C34.7041 39.1465 33.6689 39.3369 32.5654 39.3369C32.2139 39.3369 31.8623 39.2979 31.5107 39.2197C31.1689 39.1416 30.8271 39.0391 30.4854 38.9121C30.1533 38.7754 29.8213 38.624 29.4893 38.458C29.167 38.292 28.8545 38.1211 28.5518 37.9453V44.9766ZM36.5645 31.0166C36.5645 30.3525 36.457 29.7568 36.2422 29.2295C36.0371 28.7021 35.7539 28.2578 35.3926 27.8965C35.0312 27.5254 34.6064 27.2422 34.1182 27.0469C33.6299 26.8516 33.1123 26.7539 32.5654 26.7539C32.0186 26.7539 31.501 26.8516 31.0127 27.0469C30.5342 27.2422 30.1143 27.5254 29.7529 27.8965C29.3916 28.2578 29.1035 28.7021 28.8887 29.2295C28.6836 29.7568 28.5811 30.3525 28.5811 31.0166C28.5811 31.6514 28.6836 32.2324 28.8887 32.7598C29.1035 33.2871 29.3916 33.7363 29.7529 34.1074C30.1143 34.4785 30.5342 34.7666 31.0127 34.9717C31.501 35.1768 32.0186 35.2793 32.5654 35.2793C33.1123 35.2793 33.6299 35.1768 34.1182 34.9717C34.6064 34.7666 35.0312 34.4785 35.3926 34.1074C35.7539 33.7363 36.0371 33.2871 36.2422 32.7598C36.457 32.2324 36.5645 31.6514 36.5645 31.0166ZM54.333 37.1689C54.0107 37.4619 53.6641 37.7402 53.293 38.0039C52.9316 38.2578 52.5508 38.4824 52.1504 38.6777C51.75 38.8633 51.335 39.0098 50.9053 39.1172C50.4854 39.2344 50.0557 39.293 49.6162 39.293C48.6494 39.293 47.7412 39.1221 46.8916 38.7803C46.042 38.4385 45.2949 37.9551 44.6504 37.3301C44.0156 36.6953 43.5127 35.9287 43.1416 35.0303C42.7803 34.1221 42.5996 33.1064 42.5996 31.9834V23.3115H46.584V31.9834C46.584 32.5107 46.6621 32.9844 46.8184 33.4043C46.9844 33.8145 47.2041 34.1611 47.4775 34.4443C47.751 34.7275 48.0684 34.9424 48.4297 35.0889C48.8008 35.2354 49.1963 35.3086 49.6162 35.3086C50.0264 35.3086 50.4121 35.2158 50.7734 35.0303C51.1445 34.835 51.4668 34.5811 51.7402 34.2686C52.0137 33.9561 52.2285 33.6045 52.3848 33.2139C52.541 32.8135 52.6191 32.4033 52.6191 31.9834V23.3115H56.6182V39H55.6514L54.333 37.1689ZM63.6787 39H59.6797V23.3115H60.6465L61.9648 25.1719C62.6094 24.5859 63.3418 24.1367 64.1621 23.8242C64.9824 23.502 65.832 23.3408 66.7109 23.3408H70.2412V27.3252H66.7109C66.291 27.3252 65.8955 27.4033 65.5244 27.5596C65.1533 27.7158 64.8311 27.9307 64.5576 28.2041C64.2842 28.4775 64.0693 28.7998 63.9131 29.1709C63.7568 29.542 63.6787 29.9375 63.6787 30.3574V39ZM85.5195 26.4316L82.5898 29.376C82.4434 28.9658 82.2432 28.5996 81.9893 28.2773C81.7354 27.9453 81.4473 27.667 81.125 27.4424C80.8125 27.2178 80.4707 27.0469 80.0996 26.9297C79.7285 26.8125 79.3477 26.7539 78.957 26.7539C78.4102 26.7539 77.8926 26.8662 77.4043 27.0908C76.9258 27.3154 76.5059 27.6328 76.1445 28.043C75.793 28.4434 75.5146 28.9219 75.3096 29.4785C75.1045 30.0352 75.002 30.6504 75.002 31.3242C75.002 31.8711 75.1045 32.3838 75.3096 32.8623C75.5146 33.3408 75.793 33.7607 76.1445 34.1221C76.5059 34.4834 76.9258 34.7666 77.4043 34.9717C77.8926 35.1768 78.4102 35.2793 78.957 35.2793C79.3477 35.2793 79.7236 35.2256 80.085 35.1182C80.4463 35.0107 80.7832 34.8594 81.0957 34.6641C81.418 34.459 81.7012 34.2148 81.9453 33.9316C82.1992 33.6387 82.4043 33.3164 82.5605 32.9648L85.4902 35.9092C85.1191 36.4365 84.6895 36.9102 84.2012 37.3301C83.7227 37.75 83.2002 38.1064 82.6338 38.3994C82.0771 38.6924 81.4863 38.9121 80.8613 39.0586C80.2461 39.2148 79.6113 39.293 78.957 39.293C77.8535 39.293 76.8135 39.0879 75.8369 38.6777C74.8701 38.2578 74.0205 37.6865 73.2881 36.9639C72.5654 36.2412 71.9941 35.3965 71.5742 34.4297C71.1543 33.4629 70.9443 32.4277 70.9443 31.3242C70.9443 30.123 71.1543 29 71.5742 27.9551C71.9941 26.9102 72.5654 26.002 73.2881 25.2305C74.0205 24.4492 74.8701 23.834 75.8369 23.3848C76.8135 22.9355 77.8535 22.7109 78.957 22.7109C79.6113 22.7109 80.251 22.7939 80.876 22.96C81.5107 23.126 82.1113 23.3701 82.6777 23.6924C83.2539 24.0049 83.7812 24.3906 84.2598 24.8496C84.748 25.3086 85.168 25.8359 85.5195 26.4316ZM91.4814 39H87.4824V17.0713H91.4814V24C91.96 23.6387 92.4531 23.3848 92.9609 23.2383C93.4688 23.082 93.9863 23.0039 94.5137 23.0039C95.4805 23.0039 96.3887 23.1895 97.2383 23.5605C98.0879 23.9219 98.8252 24.4248 99.4502 25.0693C100.085 25.7041 100.583 26.4512 100.944 27.3105C101.315 28.1602 101.501 29.0684 101.501 30.0352V39H97.4727V30.0352H97.502C97.502 29.625 97.4238 29.2393 97.2676 28.8779C97.1113 28.5068 96.8965 28.1846 96.623 27.9111C96.3496 27.6377 96.0322 27.4229 95.6709 27.2666C95.3096 27.1104 94.9238 27.0322 94.5137 27.0322C94.0938 27.0322 93.6982 27.1104 93.3271 27.2666C92.9561 27.4229 92.6338 27.6377 92.3604 27.9111C92.0869 28.1846 91.8721 28.5068 91.7158 28.8779C91.5596 29.2393 91.4814 29.625 91.4814 30.0352V39ZM119.548 39H118.581L117.028 36.8467C116.647 37.1885 116.242 37.5107 115.812 37.8135C115.393 38.1064 114.948 38.3652 114.479 38.5898C114.011 38.8047 113.527 38.9756 113.029 39.1025C112.541 39.2295 112.043 39.293 111.535 39.293C110.432 39.293 109.392 39.1074 108.415 38.7363C107.448 38.3652 106.599 37.8281 105.866 37.125C105.144 36.4121 104.572 35.543 104.152 34.5176C103.732 33.4922 103.522 32.3252 103.522 31.0166C103.522 29.7959 103.732 28.6777 104.152 27.6621C104.572 26.6367 105.144 25.7578 105.866 25.0254C106.599 24.293 107.448 23.7266 108.415 23.3262C109.392 22.916 110.432 22.7109 111.535 22.7109C112.043 22.7109 112.546 22.7744 113.044 22.9014C113.542 23.0283 114.025 23.2041 114.494 23.4287C114.963 23.6533 115.407 23.917 115.827 24.2197C116.257 24.5225 116.657 24.8496 117.028 25.2012L118.581 23.3408H119.548V39ZM115.52 31.0166C115.52 30.4697 115.412 29.9424 115.197 29.4346C114.992 28.917 114.709 28.4629 114.348 28.0723C113.986 27.6719 113.562 27.3545 113.073 27.1201C112.595 26.876 112.082 26.7539 111.535 26.7539C110.988 26.7539 110.471 26.8467 109.982 27.0322C109.504 27.2178 109.084 27.4912 108.723 27.8525C108.371 28.2139 108.093 28.6631 107.888 29.2002C107.683 29.7275 107.58 30.333 107.58 31.0166C107.58 31.7002 107.683 32.3105 107.888 32.8477C108.093 33.375 108.371 33.8193 108.723 34.1807C109.084 34.542 109.504 34.8154 109.982 35.001C110.471 35.1865 110.988 35.2793 111.535 35.2793C112.082 35.2793 112.595 35.1621 113.073 34.9277C113.562 34.6836 113.986 34.3662 114.348 33.9756C114.709 33.5752 114.992 33.1211 115.197 32.6133C115.412 32.0957 115.52 31.5635 115.52 31.0166ZM131.223 39H122.082V35.0156H131.223C131.496 35.0156 131.73 34.918 131.926 34.7227C132.121 34.5273 132.219 34.293 132.219 34.0195C132.219 33.7363 132.121 33.5508 131.926 33.4629C131.73 33.375 131.496 33.3311 131.223 33.3311H127.062C126.369 33.3311 125.72 33.1992 125.114 32.9355C124.509 32.6719 123.981 32.3154 123.532 31.8662C123.083 31.4072 122.727 30.875 122.463 30.2695C122.209 29.6641 122.082 29.0146 122.082 28.3213C122.082 27.6279 122.209 26.9785 122.463 26.373C122.727 25.7676 123.083 25.2402 123.532 24.791C123.981 24.3418 124.509 23.9902 125.114 23.7363C125.72 23.4727 126.369 23.3408 127.062 23.3408H135.163V27.3252H127.062C126.789 27.3252 126.555 27.4229 126.359 27.6182C126.164 27.8135 126.066 28.0479 126.066 28.3213C126.066 28.6045 126.164 28.8486 126.359 29.0537C126.555 29.249 126.789 29.3467 127.062 29.3467H131.223C131.906 29.3467 132.551 29.4639 133.156 29.6982C133.762 29.9229 134.289 30.2402 134.738 30.6504C135.188 31.0605 135.544 31.5537 135.808 32.1299C136.071 32.7061 136.203 33.3359 136.203 34.0195C136.203 34.7129 136.071 35.3623 135.808 35.9678C135.544 36.5635 135.188 37.0908 134.738 37.5498C134.289 37.999 133.762 38.3555 133.156 38.6191C132.551 38.873 131.906 39 131.223 39ZM144.582 35.1621C144.738 35.2109 144.895 35.2451 145.051 35.2646C145.207 35.2744 145.363 35.2793 145.52 35.2793C145.91 35.2793 146.286 35.2256 146.647 35.1182C147.009 35.0107 147.346 34.8594 147.658 34.6641C147.98 34.459 148.264 34.2148 148.508 33.9316C148.762 33.6387 148.967 33.3164 149.123 32.9648L152.053 35.9092C151.682 36.4365 151.252 36.9102 150.764 37.3301C150.285 37.75 149.763 38.1064 149.196 38.3994C148.64 38.6924 148.049 38.9121 147.424 39.0586C146.809 39.2148 146.174 39.293 145.52 39.293C144.416 39.293 143.376 39.0879 142.399 38.6777C141.433 38.2676 140.583 37.6963 139.851 36.9639C139.128 36.2314 138.557 35.3623 138.137 34.3564C137.717 33.3408 137.507 32.2275 137.507 31.0166C137.507 29.7764 137.717 28.6436 138.137 27.6182C138.557 26.5928 139.128 25.7188 139.851 24.9961C140.583 24.2734 141.433 23.7119 142.399 23.3115C143.376 22.9111 144.416 22.7109 145.52 22.7109C146.174 22.7109 146.813 22.7891 147.438 22.9453C148.063 23.1016 148.654 23.3262 149.211 23.6191C149.777 23.9121 150.305 24.2734 150.793 24.7031C151.281 25.123 151.711 25.5967 152.082 26.124L144.582 35.1621ZM146.633 26.915C146.447 26.8467 146.262 26.8027 146.076 26.7832C145.9 26.7637 145.715 26.7539 145.52 26.7539C144.973 26.7539 144.455 26.8564 143.967 27.0615C143.488 27.2568 143.068 27.54 142.707 27.9111C142.355 28.2822 142.077 28.7314 141.872 29.2588C141.667 29.7764 141.564 30.3623 141.564 31.0166C141.564 31.1631 141.569 31.3291 141.579 31.5146C141.599 31.7002 141.623 31.8906 141.652 32.0859C141.691 32.2715 141.735 32.4521 141.784 32.6279C141.833 32.8037 141.896 32.96 141.975 33.0967L146.633 26.915ZM166.511 39H162.512V23.3115H163.479L164.797 24.835C165.441 24.249 166.169 23.7998 166.979 23.4873C167.8 23.165 168.654 23.0039 169.543 23.0039C170.5 23.0039 171.403 23.1895 172.253 23.5605C173.103 23.9219 173.845 24.4248 174.479 25.0693C175.114 25.7041 175.612 26.4512 175.974 27.3105C176.345 28.1602 176.53 29.0684 176.53 30.0352V39H172.531V30.0352C172.531 29.625 172.453 29.2393 172.297 28.8779C172.141 28.5068 171.926 28.1846 171.652 27.9111C171.379 27.6377 171.062 27.4229 170.7 27.2666C170.339 27.1104 169.953 27.0322 169.543 27.0322C169.123 27.0322 168.728 27.1104 168.356 27.2666C167.985 27.4229 167.663 27.6377 167.39 27.9111C167.116 28.1846 166.901 28.5068 166.745 28.8779C166.589 29.2393 166.511 29.625 166.511 30.0352V39ZM194.548 31.0166C194.548 32.1885 194.338 33.2822 193.918 34.2979C193.498 35.3037 192.927 36.1777 192.204 36.9199C191.481 37.6523 190.632 38.2334 189.655 38.6631C188.688 39.083 187.648 39.293 186.535 39.293C185.432 39.293 184.392 39.083 183.415 38.6631C182.448 38.2334 181.599 37.6523 180.866 36.9199C180.144 36.1777 179.572 35.3037 179.152 34.2979C178.732 33.2822 178.522 32.1885 178.522 31.0166C178.522 29.8252 178.732 28.7217 179.152 27.7061C179.572 26.6904 180.144 25.8164 180.866 25.084C181.599 24.3418 182.448 23.7607 183.415 23.3408C184.392 22.9209 185.432 22.7109 186.535 22.7109C187.648 22.7109 188.688 22.9111 189.655 23.3115C190.632 23.7021 191.481 24.2637 192.204 24.9961C192.927 25.7188 193.498 26.5928 193.918 27.6182C194.338 28.6338 194.548 29.7666 194.548 31.0166ZM190.52 31.0166C190.52 30.3721 190.412 29.791 190.197 29.2734C189.992 28.7461 189.709 28.2969 189.348 27.9258C188.986 27.5449 188.562 27.2568 188.073 27.0615C187.595 26.8564 187.082 26.7539 186.535 26.7539C185.988 26.7539 185.471 26.8564 184.982 27.0615C184.504 27.2568 184.084 27.5449 183.723 27.9258C183.371 28.2969 183.093 28.7461 182.888 29.2734C182.683 29.791 182.58 30.3721 182.58 31.0166C182.58 31.6221 182.683 32.1836 182.888 32.7012C183.093 33.2188 183.371 33.668 183.723 34.0488C184.084 34.4297 184.504 34.7324 184.982 34.957C185.471 35.1719 185.988 35.2793 186.535 35.2793C187.082 35.2793 187.595 35.1768 188.073 34.9717C188.562 34.7666 188.986 34.4785 189.348 34.1074C189.709 33.7363 189.992 33.2871 190.197 32.7598C190.412 32.2324 190.52 31.6514 190.52 31.0166ZM216.564 33.3311C216.564 34.1514 216.408 34.9277 216.096 35.6602C215.783 36.3828 215.354 37.0127 214.807 37.5498C214.27 38.0869 213.635 38.5117 212.902 38.8242C212.18 39.1367 211.403 39.293 210.573 39.293C209.831 39.293 209.118 39.166 208.435 38.9121C207.751 38.6484 207.131 38.2676 206.574 37.7695C206.027 38.2676 205.412 38.6484 204.729 38.9121C204.055 39.166 203.342 39.293 202.59 39.293C201.76 39.293 200.983 39.1367 200.261 38.8242C199.538 38.5117 198.903 38.0869 198.356 37.5498C197.819 37.0127 197.395 36.3828 197.082 35.6602C196.77 34.9277 196.613 34.1514 196.613 33.3311V23.3408H200.612V33.3311C200.612 33.6045 200.661 33.8633 200.759 34.1074C200.866 34.3418 201.008 34.5518 201.184 34.7373C201.369 34.9131 201.579 35.0547 201.813 35.1621C202.058 35.2598 202.316 35.3086 202.59 35.3086C202.863 35.3086 203.122 35.2598 203.366 35.1621C203.61 35.0547 203.825 34.9131 204.011 34.7373C204.196 34.5518 204.338 34.3418 204.436 34.1074C204.543 33.8633 204.597 33.6045 204.597 33.3311V23.3408H208.581V33.3311C208.581 33.6045 208.635 33.8633 208.742 34.1074C208.85 34.3418 208.991 34.5518 209.167 34.7373C209.353 34.9131 209.562 35.0547 209.797 35.1621C210.041 35.2598 210.3 35.3086 210.573 35.3086C210.847 35.3086 211.105 35.2598 211.35 35.1621C211.594 35.0547 211.804 34.9131 211.979 34.7373C212.165 34.5518 212.312 34.3418 212.419 34.1074C212.526 33.8633 212.58 33.6045 212.58 33.3311V23.3408H216.564V33.3311Z" fill="white"/>
<rect x="1" y="1" width="239" height="56" stroke="white" stroke-width="2"/>
</svg>
