<svg width="500" height="500" viewBox="0 0 500 500" fill="none" xmlns="http://www.w3.org/2000/svg">
<path d="M330.978 138.587C348.37 158.152 356.522 184.783 352.717 213.043C346.196 265.217 308.152 283.696 274.457 283.696C272.826 283.696 271.739 283.696 271.739 283.696V296.739C271.739 308.696 261.957 318.478 250 318.478C238.043 318.478 228.261 308.696 228.261 296.739V279.348C228.261 261.413 235.87 240.217 274.457 240.217C295.652 240.217 306.522 229.348 309.239 207.609C310.326 200.543 310.87 181.522 297.826 167.391C287.5 155.978 270.652 150 247.826 150C198.913 150 197.283 182.065 197.283 185.326C197.283 197.283 187.5 207.065 175.543 207.065C163.587 207.065 153.804 197.283 153.804 185.326C153.804 163.587 170.652 106.522 247.826 106.522C292.935 106.522 317.935 123.913 330.978 138.587ZM248.37 336.957C241.304 336.957 234.239 339.674 229.348 345.109C224.457 350 221.196 357.065 221.196 364.13C221.196 371.196 223.913 378.261 229.348 383.152C234.239 388.043 241.304 391.304 248.37 391.304C255.435 391.304 262.5 388.587 267.391 383.152C272.283 378.261 275.543 371.196 275.543 364.13C275.543 357.065 272.826 350 267.391 345.109C262.5 340.217 255.978 336.957 248.37 336.957ZM500 250C500 388.043 388.043 500 250 500C111.957 500 0 388.043 0 250C0 111.957 111.957 0 250 0C388.043 0 500 111.957 500 250ZM456.522 250C456.522 135.87 364.13 43.4783 250 43.4783C135.87 43.4783 43.4783 135.87 43.4783 250C43.4783 364.13 135.87 456.522 250 456.522C364.13 456.522 456.522 364.13 456.522 250Z" fill="white"/>
</svg>
